@startuml
skinparam packageStyle rectangle
skinparam shadowing false
skinparam classAttributeIconSize 0
skinparam class {
  BackgroundColor LightBlue
  BorderColor Blue
}
skinparam enum {
  BackgroundColor LightBlue
  BorderColor Blue
}

hide circle
hide methods

title Domain Model - US10 : Assign a train to a route

class Player {
  username
  password
  ownedLocomotives
}

class Position {
  x
  y
  occupied
}

class City {
  nameID
  trafficRate
  suppliedCargo
  demandedCargo
}


class HouseBlock {
  automaticPlacement
}


class Industry {
  nameID
  type
  availabilityYear
  productionRate
  suppliedCargo
  demandedCargo
}

class IndustrySector {
  name
  importsExports
  generatesCargo
  consumesCargo
  description
}

class Station {
  nameID
  storageCapacity
  buildingSlots
  availableCargo
  requestedCargo
}

class StationType {
  name
  economicRadius
  cost
  centerPoint
}

class RailwayLine {
  length
  placementPrice
  maintenanceCostPerKm
}

class Locomotive {
  nameID
  owner
  type
  power
  acceleration
  topSpeed
  actualSpeed
  startYear
  fuelAcquisitionPrice
  fuelConsumptionPrice
  availabilityYear
  acquisitionPrice
  baseMaintenanceCost
  maintenanceFrequency
  wearAndTearFactor
}

class Route {
  nameID
  stationSequence
}

class Carriage {
  carriageID
  storageCapacity
  status
  speedDegradation
}

class Cargo {
  name
  amount
  lifespan
  type
  pricePerUnit
}

class Train {
  nameID
  traveledKms
  status
}

class TrainSchedule {
  calculatedArrivalTime
  calculatedDepartureTime
  actualArrivalTime
  actualDepartureTime
  departureStation
  arrivalStation
}

class PointOfRoute {
  cargoMode
}

Player "1" -- "*" Station : builds >
Player "1" -- "*" RailwayLine : builds >
Player "1" -- "*" Locomotive : buys >
Player "1" -- "*" Route: defines >

Route "1" -- "*" Station : includes >
Route "*" -- "*" Cargo : manages >

Train "1" -- "1" Locomotive : powered by >
Train "1" -- "*" Route : assigned to >
Train "1" -- "*" Carriage : composed of >

RailwayLine "1" -- "2" Station : connects >

Station "1" -- "*" Cargo : stores >
Station "1" -- "*" City : serves >
Station "1" -- "*" Industry : serves >

Carriage "*" -- "1" Cargo : carries >
Route "1..*"-- "1..*" RailwayLine: contains >

City "*" -- "*" Cargo : produces/consumes >

City "1" -- "1" Position : located at >
Industry "1" -- "1" Position : located at >
Station "1" -- "1" Position : located at >

City "1" -- "1..*" HouseBlock : contains >
HouseBlock "1" -- "1" Position : has >

Industry "*" -- "*" Cargo : produces/consumes >

Station "*" -- "1" StationType : defined by >
IndustrySector "1" -- "*" Industry : contains >

StationType "1" -- "*" StationType : can change >
Route "1" -- "*" PointOfRoute : contains >
PointOfRoute "1" -- "1" Station : represents >
PointOfRoute "*" -- "*" Cargo : stores >
TrainSchedule "*" -- "*" Train: belongs to >
Station "1" -- "*" TrainSchedule: generates >
Route "1" -- "*" TrainSchedule : stores  >

@enduml