@startuml
skinparam shadowing false
skinparam classAttributeIconSize 0
skinparam class {
  BackgroundColor LightBlue
  BorderColor Blue
}

hide methods
hide circle

title "Domain Model - US21 : Save a Scenario "


class Editor {
  username
  password
  createdScenarios
}

class Scenario {
  nameID
  startDate
  endDate
  initialBudget
  currentBudget
}

class Map {
  nameID
  scale
}

class Locomotive {
  nameID
  owner
  type
  power
  acceleration
  topSpeed
  actualSpeed
  startYear
  fuelAcquisitionPrice
  fuelConsumptionPrice
  availabilityYear
  acquisitionPrice
  baseMaintenanceCost
  maintenanceFrequency
  wearAndTearFactor 
}

class Industry {
  nameID
  type
  availabilityYear
  productionRate
  suppliedCargo
  demandedCargo
}

class IndustrySector {
  name
  importsExports
  generatesCargo
  consumesCargo
  description
}

class Station {
  nameID
  storageCapacity
  buildingSlots
  availableCargo
  requestedCargo
}

class City {
  nameID
  trafficRate
  suppliedCargo
  demandedCargo
}

' Relationships
Editor "1" -- "*" Scenario : creates/saves/loads >
Scenario "*" -- "1" Map : uses >
Scenario "1" -- "*" Locomotive : configures >
Scenario "1" -- "*" Industry : configures >
Scenario "1" -- "*" IndustrySector : configures >
Scenario "1" -- "*" Station : configures >
Scenario "1" -- "*" City : configures >
IndustrySector "1" -- "*" Industry : contains >
Map "1" -- "*" City : contains >
Map "1" -- "*" Industry : contains >

@enduml
